<?xml version="1.0" encoding="UTF-8"?>
<svg width="151px" height="50px" viewBox="0 0 151 50" version="1.1" xmlns="http://www.w3.org/2000/svg" xmlns:xlink="http://www.w3.org/1999/xlink">
    <!-- Generator: Sketch 63.1 (92452) - https://sketch.com -->
    <title>Husky-Full-Logo</title>
    <desc>Created with Sketch.</desc>
    <defs>
        <linearGradient x1="-7.41540061%" y1="60.156802%" x2="513.92425%" y2="60.156802%" id="linearGradient-1">
            <stop stop-color="#58B8BD" offset="15%"></stop>
            <stop stop-color="#59B4BC" offset="36%"></stop>
            <stop stop-color="#5BA8B8" offset="58%"></stop>
            <stop stop-color="#5E94B3" offset="79%"></stop>
            <stop stop-color="#6378AB" offset="100%"></stop>
        </linearGradient>
        <linearGradient x1="-145.986696%" y1="48.8064661%" x2="444.237116%" y2="48.8064661%" id="linearGradient-2">
            <stop stop-color="#58B8BD" offset="15%"></stop>
            <stop stop-color="#59B4BC" offset="36%"></stop>
            <stop stop-color="#5BA8B8" offset="58%"></stop>
            <stop stop-color="#5E94B3" offset="79%"></stop>
            <stop stop-color="#6378AB" offset="100%"></stop>
        </linearGradient>
        <linearGradient x1="-300.598255%" y1="50.1008355%" x2="368.834862%" y2="50.1008355%" id="linearGradient-3">
            <stop stop-color="#58B8BD" offset="15%"></stop>
            <stop stop-color="#59B4BC" offset="36%"></stop>
            <stop stop-color="#5BA8B8" offset="58%"></stop>
            <stop stop-color="#5E94B3" offset="79%"></stop>
            <stop stop-color="#6378AB" offset="100%"></stop>
        </linearGradient>
        <linearGradient x1="-374.841644%" y1="62.5558024%" x2="222.061244%" y2="62.5558024%" id="linearGradient-4">
            <stop stop-color="#58B8BD" offset="15%"></stop>
            <stop stop-color="#59B4BC" offset="36%"></stop>
            <stop stop-color="#5BA8B8" offset="58%"></stop>
            <stop stop-color="#5E94B3" offset="79%"></stop>
            <stop stop-color="#6378AB" offset="100%"></stop>
        </linearGradient>
        <linearGradient x1="-448.994659%" y1="37.7575498%" x2="107.854226%" y2="37.7575498%" id="linearGradient-5">
            <stop stop-color="#58B8BD" offset="15%"></stop>
            <stop stop-color="#59B4BC" offset="36%"></stop>
            <stop stop-color="#5BA8B8" offset="58%"></stop>
            <stop stop-color="#5E94B3" offset="79%"></stop>
            <stop stop-color="#6378AB" offset="100%"></stop>
        </linearGradient>
        <linearGradient x1="17.9995579%" y1="15.9807773%" x2="70.1181688%" y2="83.7791564%" id="linearGradient-6">
            <stop stop-color="#58B8BD" offset="15%"></stop>
            <stop stop-color="#59B4BC" offset="36%"></stop>
            <stop stop-color="#5BA8B8" offset="58%"></stop>
            <stop stop-color="#5E94B3" offset="79%"></stop>
            <stop stop-color="#6378AB" offset="100%"></stop>
        </linearGradient>
    </defs>
    <g id="Husky-Full-Logo" stroke="none" stroke-width="1" fill="none" fill-rule="evenodd">
        <g id="husky_full_1" transform="translate(6.500000, 3.500000)" fill-rule="nonzero">
            <path d="M71.8076374,28.5548352 C71.4706547,28.6351564 71.1289813,28.6943377 70.7846154,28.732033 C70.3278271,28.7909584 69.8677703,28.8209449 69.4071978,28.8218132 C69.004699,28.8261921 68.6027298,28.7913759 68.206978,28.7178571 C67.8925708,28.6627701 67.5945993,28.537606 67.3351648,28.3516484 C67.0882044,28.1621449 66.9024989,27.9041293 66.8012088,27.6097802 C66.6688989,27.2084621 66.6081217,26.7870199 66.6216484,26.3646703 L66.6216484,21.7362637 L60.9300549,21.7362637 L60.9300549,28.5548352 C60.5930723,28.6351564 60.2513989,28.6943377 59.907033,28.732033 C59.4502447,28.7909584 58.9901878,28.8209449 58.5296154,28.8218132 C58.1271166,28.8261921 57.7251474,28.7913759 57.3293956,28.7178571 C57.0182896,28.6614207 56.7236851,28.5363147 56.467033,28.3516484 C56.2200725,28.1621449 56.034367,27.9041293 55.9330769,27.6097802 C55.8007671,27.2084621 55.7399898,26.7870199 55.7535165,26.3646703 L55.7535165,10.7121978 C55.9708791,10.672033 56.3181868,10.6176923 56.7930769,10.5491758 C57.2442826,10.4807518 57.699955,10.4460038 58.1563187,10.4452198 C58.5588529,10.43989 58.9609153,10.4747143 59.3565385,10.5491758 C59.6718076,10.6051781 59.9705189,10.7311213 60.2307143,10.9177473 C60.4758025,11.109059 60.6610712,11.3664676 60.7646703,11.6596154 C60.8956564,12.0611981 60.9556203,12.4825441 60.9418681,12.9047253 L60.9418681,17.6465385 L66.6263736,17.6465385 L66.6263736,10.7121978 C66.8437363,10.672033 67.191044,10.6176923 67.6659341,10.5491758 C68.1171397,10.4807518 68.5728122,10.4460038 69.0291758,10.4452198 C69.43171,10.43989 69.8337725,10.4747143 70.2293956,10.5491758 C70.5446647,10.6051781 70.8433761,10.7311213 71.1035714,10.9177473 C71.3486596,11.109059 71.5339283,11.3664676 71.6375275,11.6596154 C71.7685136,12.0611981 71.8284774,12.4825441 71.8147253,12.9047253 L71.8076374,28.5548352 Z" id="Path" fill="url(#linearGradient-1)"></path>
            <path d="M75.275989,14.4758791 C75.5825737,14.3951974 75.8944103,14.3359879 76.2092308,14.2986813 C76.6459664,14.2372421 77.0865495,14.2072382 77.5275824,14.2089011 C77.9232217,14.2042686 78.3185061,14.2343102 78.7089011,14.2986813 C79.0242973,14.345733 79.3239548,14.4672158 79.5830769,14.6530769 C79.8271222,14.8417245 80.0163537,15.0921299 80.1312088,15.3784066 C80.2718689,15.7631976 80.3368512,16.1715433 80.3225824,16.580989 L80.3225824,22.9601099 C80.3225824,23.7704945 80.521044,24.346978 80.9156044,24.6942857 C81.3101648,25.0415934 81.8842857,25.2117033 82.6356044,25.2117033 C83.0092979,25.2204135 83.3825467,25.1807061 83.746044,25.0935714 C83.9756497,25.0353443 84.1994554,24.956261 84.4146703,24.8573077 L84.4146703,14.4758791 C84.721255,14.3951974 85.0330916,14.3359879 85.3479121,14.2986813 C85.7846316,14.2370876 86.2252259,14.207083 86.6662637,14.2089011 C87.0619108,14.2040245 87.4572166,14.2340677 87.8475824,14.2986813 C88.1638024,14.3453712 88.4643094,14.46687 88.7241209,14.6530769 C88.9681662,14.8417245 89.1573977,15.0921299 89.2722527,15.3784066 C89.4129129,15.7631976 89.4778952,16.1715433 89.4636264,16.580989 L89.4636264,25.5897253 C89.5046701,26.5071713 89.0222237,27.3686174 88.2185165,27.812967 C87.4539087,28.2770645 86.6182045,28.612304 85.7448352,28.8052747 C84.7189332,29.0403621 83.6691695,29.1553286 82.6167033,29.1478571 C81.622614,29.1558733 80.6316235,29.0359698 79.6681319,28.7910989 C78.8277435,28.582588 78.0368553,28.2100275 77.3409341,27.6948352 C76.68448,27.19471 76.1644752,26.5373914 75.8288462,25.7834615 C75.451628,24.887089 75.2703806,23.9204362 75.2972527,22.9482967 L75.275989,14.4758791 Z" id="Path" fill="url(#linearGradient-2)"></path>
            <path d="M104.676648,24.3753297 C104.676648,25.877967 104.113553,27.0537729 102.987363,27.9027473 C101.861172,28.7517216 100.201026,29.1762088 98.0069231,29.1762088 C97.2331493,29.1805488 96.4603279,29.1212834 95.6962637,28.999011 C95.0652023,28.9044293 94.4509651,28.7198399 93.8723077,28.4508791 C93.4099337,28.2327599 93.0052849,27.9090409 92.690989,27.5058242 C92.4008212,27.1222919 92.2492392,26.6517213 92.260989,26.1709341 C92.2462971,25.7512221 92.3485452,25.3356858 92.5563187,24.9707143 C92.741667,24.6586156 92.9817721,24.3824948 93.2651099,24.1556044 C93.8952663,24.4959889 94.5547304,24.7790682 95.2355495,25.0014286 C96.0688347,25.2654979 96.9391444,25.3939304 97.8131868,25.3818132 C98.3004559,25.410382 98.7872747,25.3186978 99.2307692,25.1148352 C99.518516,24.9947177 99.7096654,24.7176896 99.7198352,24.406044 C99.7252587,24.1407244 99.5894366,23.8924667 99.3630769,23.753956 C98.9967836,23.5529991 98.5961115,23.42238 98.1817582,23.3688462 L97.2934066,23.1916484 C95.5560806,22.8514286 94.2676557,22.3221978 93.4281319,21.603956 C92.5886081,20.8857143 92.1688462,19.8532418 92.1688462,18.5065385 C92.1586205,17.8152178 92.321034,17.1322687 92.6413736,16.5195604 C92.9604717,15.9261568 93.4174733,15.4181072 93.9739011,15.0381868 C94.6038288,14.6177157 95.3004187,14.3069664 96.0341209,14.1191209 C96.9002144,13.8935304 97.7924187,13.7838917 98.6873626,13.7930769 C99.3774483,13.7898366 100.066594,13.8443676 100.747582,13.9560989 C101.324849,14.0455613 101.887973,14.2099713 102.422692,14.4451648 C102.858588,14.6352161 103.24379,14.9249268 103.547308,15.290989 C103.825052,15.6394321 103.972156,16.0740571 103.963132,16.5195604 C103.975477,16.9279686 103.888738,17.3332923 103.71033,17.7008791 C103.55412,18.0117179 103.338151,18.2887042 103.07478,18.515989 C102.85021,18.3872594 102.612617,18.2827183 102.365989,18.2041209 C102.025406,18.0884173 101.679239,17.9898505 101.328791,17.9087912 C100.953132,17.819011 100.572747,17.7457692 100.187637,17.6867033 C99.8391372,17.6304196 99.4868997,17.6004083 99.1339011,17.5969231 C98.6203561,17.5745393 98.107233,17.6499042 97.6218132,17.819011 C97.3065582,17.9105492 97.089825,18.1995267 97.0902198,18.5278022 C97.0894013,18.7449602 97.2011677,18.947034 97.3855495,19.0617582 C97.7402899,19.248271 98.1248761,19.3714026 98.521978,19.4256044 L99.441044,19.6335165 C101.331154,20.0682418 102.679432,20.665989 103.485879,21.4267582 C104.285378,22.1946604 104.718673,23.2675816 104.676648,24.3753297 Z" id="Path" fill="url(#linearGradient-3)"></path>
            <path d="M121.186758,26.0646154 C121.087527,26.9939194 120.815824,27.7027106 120.371648,28.190989 C119.927473,28.6792674 119.28011,28.9265568 118.42956,28.9328571 C117.834105,28.9430963 117.248084,28.7832722 116.740275,28.4721429 C116.122114,28.0484152 115.580448,27.522728 115.138407,26.9175275 L112.204011,23.2483516 L112.204011,28.6422527 C111.986648,28.6824176 111.66533,28.7367582 111.242418,28.8052747 C110.816022,28.8754548 110.384549,28.9102255 109.952418,28.9092308 C109.556887,28.913372 109.161712,28.884129 108.771099,28.8218132 C108.45552,28.7739677 108.155866,28.6516767 107.896923,28.4650549 C107.652878,28.2764074 107.463646,28.0260019 107.348791,27.7397253 C107.208085,27.355766 107.143097,26.9481837 107.157418,26.5395055 L107.157418,9.37730769 C107.37478,9.3190293 107.696099,9.2552381 108.121374,9.18593407 C108.546963,9.11565774 108.977659,9.08088597 109.409011,9.08197802 C109.804542,9.07783681 110.199717,9.10707975 110.59033,9.1693956 C110.905909,9.21724109 111.205562,9.33953212 111.464505,9.52615385 C111.708551,9.7148014 111.897782,9.96520685 112.012637,10.2514835 C112.153343,10.6354428 112.218332,11.0430251 112.204011,11.4517033 L112.204011,19.2767582 L117.302582,14.0600549 C118.329542,14.0600549 119.15489,14.2876557 119.778626,14.7428571 C120.35947,15.1213786 120.710364,15.7672012 120.711868,16.4604945 C120.715393,16.7392636 120.664845,17.0160728 120.563022,17.2756044 C120.448471,17.548901 120.294005,17.8036897 120.10467,18.0316484 C119.864252,18.3251417 119.599484,18.5978134 119.313187,18.8467582 C118.987143,19.135 118.606758,19.4657692 118.172033,19.8390659 L116.452033,21.3228022 L121.186758,26.0646154 Z" id="Path" fill="url(#linearGradient-4)"></path>
            <path d="M125.304835,24.9967033 C125.087473,24.5021245 124.851209,23.9508425 124.596044,23.3428571 C124.340879,22.7348718 124.084139,22.0331685 123.825824,21.2377473 C123.558059,20.4502015 123.28163,19.5460989 122.996538,18.5254396 C122.711447,17.5047802 122.409817,16.3344872 122.091648,15.0145604 C122.80978,14.3384452 123.760951,13.9652545 124.747253,13.9726374 C125.349084,13.9537806 125.943902,14.106172 126.462527,14.4120879 C126.916154,14.7003297 127.251648,15.239011 127.469011,16.0281319 L129.810385,24.1792308 L129.928516,24.1792308 C130.16793,23.5082418 130.404194,22.7773993 130.637308,21.9867033 C130.870421,21.1960073 131.092509,20.3808974 131.303571,19.5413736 C131.520934,18.7002747 131.724121,17.8599634 131.913132,17.0204396 C132.102143,16.1809158 132.264377,15.3563553 132.399835,14.5467582 C133.122779,14.1689757 133.927917,13.9758076 134.743571,13.9844505 C135.341706,13.9576857 135.934623,14.1063254 136.449396,14.4120879 C136.905385,14.7074176 137.132198,15.2224725 137.132198,15.9525275 C137.121729,16.5751556 137.052112,17.1953799 136.924286,17.8048352 C136.785678,18.5057509 136.602967,19.2515568 136.376154,20.0422527 C136.149341,20.8329487 135.882363,21.6496337 135.57522,22.4923077 C135.260201,23.3334066 134.938883,24.1587546 134.611264,24.9683516 C134.283645,25.7779487 133.937912,26.5434432 133.574066,27.2648352 C133.21967,27.984652 132.873938,28.6320147 132.536868,29.2069231 C132.077716,30.0285846 131.563041,30.8179633 130.996429,31.5695604 C130.599412,32.100471 130.141916,32.5833389 129.633187,33.0084066 C129.247541,33.3255309 128.80489,33.5661024 128.329011,33.7171978 C127.886081,33.8458249 127.426995,33.910272 126.965769,33.9085714 C126.222173,33.9412228 125.496437,33.6749211 124.95044,33.1690659 C124.426221,32.6549883 124.100676,31.9720971 124.031374,31.2411538 C124.66141,30.7465751 125.291447,30.195293 125.921484,29.5873077 C126.53287,29.0070594 127.106583,28.3883648 127.639121,27.735 C127.228316,27.5858957 126.857848,27.3432314 126.557033,27.0262088 C126.175861,26.6828388 125.758462,26.006337 125.304835,24.9967033 Z" id="Path" fill="url(#linearGradient-5)"></path>
            <path d="M42.7117582,14.0151648 C42.7448352,14.1427473 42.5629121,14.3719231 42.5062088,14.4876923 C42.0832967,15.2720879 41.9958791,16.1958791 41.7785165,17.0464286 C41.013022,20.0611538 37.762033,20.7959341 35.0875275,21.0936264 C33.5875256,21.2299593 32.0773307,21.2077855 30.581978,21.0274725 C27.6924725,20.7486813 24.8265934,20.3588462 22.0764835,19.3594505 C20.6482757,18.8607638 19.3857822,17.9768548 18.4285714,16.8054396 C16.6638803,14.6172822 15.026242,12.3296371 13.5237363,9.95379121 C13.2874725,9.58758242 13.063022,9.21664835 12.8149451,8.82208791 C13.0228571,8.7582967 13.192967,8.71340659 13.3536264,8.65197802 C14.4120879,8.25032967 15.4870879,7.86758242 16.5384615,7.43049451 C16.7747253,7.33126374 16.9235714,7.03357143 17.1125824,6.82565934 C16.8763187,6.68626374 16.6400549,6.45 16.3848901,6.42164835 C15.3274338,6.28641496 14.2635303,6.20754887 13.1976923,6.18538462 C12.6847991,6.20834159 12.192875,5.98001126 11.8793407,5.57346154 C10.4948352,3.99758242 8.85989011,2.85642857 6.61065934,3.21082418 C6.07308936,3.29185544 5.52553272,3.15305026 5.09148352,2.82571429 C4.82686813,2.64615385 4.55752747,2.46423077 4.31181319,2.25868132 C3.63137363,1.65384615 2.96274725,1.06791209 2.28703297,0.472527473 C2.01296703,0.236263736 1.36324176,0.153571429 1.08917582,0.323681319 C0.715879121,0.559945055 0.852912088,0.907252747 0.878901099,1.23565934 C0.943581942,2.05259952 1.1984473,2.84308667 1.62313187,3.54395604 C1.68593327,3.65968844 1.73433341,3.78267241 1.76725275,3.91016484 L0,4.08027473 C0.25043956,4.30236264 0.418186813,4.4393956 0.571758242,4.58587912 C2.0743956,6.00346154 2.98637363,7.69510989 2.67686813,9.82384615 C2.47604396,11.1989011 2.04604396,12.5385165 1.89010989,13.9182967 C1.505,17.0842308 1.45302198,25.1715385 4.08972527,26.4804396 C4.44412088,26.6552747 4.2810989,24.4296703 4.38978022,23.4822527 C4.42317841,22.9278008 4.65458554,22.403781 5.04186813,22.0056044 C5.09620879,22.5939011 5.08675824,23.1727473 5.09620879,23.7515934 C5.09965252,25.8718515 5.71760881,27.9456571 6.87527473,29.721978 C7.01684207,29.9324478 7.09851048,30.177453 7.11153846,30.4307692 C7.12571429,33.3297253 7.11153846,36.231044 7.12807692,39.13 C7.16232004,39.4201306 7.01504412,39.7015495 6.75714286,39.8387912 C6.36178543,40.0878078 6.00246394,40.3898922 5.68923077,40.7365934 C5.49972909,40.9758878 5.36576801,41.2543009 5.29703297,41.5517033 C5.20489011,41.8682967 5.29703297,42.0643956 5.71521978,42.0502198 C6.63664835,42.0195055 7.56043956,42.0502198 8.48186813,42.0502198 L9.96324176,42.0502198 C9.97978022,41.813956 9.98450549,41.606044 10.0057692,41.4052198 C10.2703846,38.9315385 10.4971978,36.4436813 10.8232418,33.9889011 C10.9484615,33.0249451 11.2792308,32.086978 11.5509341,31.1537363 C11.6434389,30.7393531 12.0252206,30.4550262 12.4487363,30.4851099 C14.026978,30.4284066 15.6028571,30.263022 17.174011,30.2488462 C18.3722975,30.2517599 19.5695464,30.3195882 20.7604945,30.452033 C21.5472527,30.5276374 25.4078022,30.9481868 26.522967,31.6593407 C26.522967,31.6782418 26.522967,31.6947802 26.522967,31.7136813 C26.6109447,32.0683476 26.7553303,32.4065767 26.9506044,32.7154396 C27.417139,34.988219 27.576071,37.3133944 27.4231319,39.6285165 C27.4073247,39.8859304 27.2659932,40.1191274 27.0451099,40.2522527 C26.5515604,40.612609 26.0963325,41.02271 25.6865934,41.4760989 C25.4503297,41.761978 25.3558242,42.1848901 25.1739011,42.6054396 L27.597967,42.6054396 C27.6047245,42.6673978 27.614979,42.7289245 27.6286813,42.7897253 L31.9759341,42.7897253 L31.9759341,42.2982967 C31.9428571,40.0443407 31.9129304,37.7895971 31.8861538,35.5340659 C31.887326,35.2270282 31.9181839,34.9208232 31.9782967,34.6197253 C32.2145604,33.299011 32.5642308,31.9877473 32.7272527,30.6575824 C32.9328022,28.9635714 32.998956,27.2553846 33.1218132,25.5873626 C35.3757692,25.4715934 37.6108242,25.0156044 39.4584066,23.3877473 L38.7189011,24.4154945 C41.0815385,23.5743956 41.8115934,23.5814835 42.8346154,21.525989 C43.911978,19.3405495 43.0354396,15.3311538 42.7117582,14.0151648 Z" id="Path" fill="url(#linearGradient-6)"></path>
        </g>
    </g>
</svg>